<?xml version="1.0" encoding="utf-8"?>
<!-- Designed by Vexels.com - 2016 All Rights Reserved - https://vexels.com/terms-and-conditions/  -->

<svg version="1.1" id="Layer_1" xmlns="http://www.w3.org/2000/svg" xmlns:xlink="http://www.w3.org/1999/xlink" x="0px" y="0px"
	 width="1200px" height="1200px" viewBox="0 0 1200 1200" enable-background="new 0 0 1200 1200" xml:space="preserve">
<g>
	<path fill="#222232" d="M367.116,1023.586c0,0-17.479,13.468-24.879,17.498c-7.388,4.036-68.57,30.908-61.856,44.363
		c0,0-2.005,13.449,32.305,9.406c0,0,47.054-4.709,54.43-4.036c7.412,0.685,46.394,6.074,49.758-1.333
		c3.351-7.388,4.683-41.697,0.66-45.048c-4.024-3.351,0.685-10.758,1.359-15.448c0.672-4.723,7.399-61.182,15.448-71.947
		c8.086-10.758,36.964-92.771,22.848-110.909c0,0,17.491-20.19,14.116-27.565c0,0,13.454-18.831,18.138-21.528
		c0,0,27.595-24.86,26.225-30.908l7.4,0.647c0,0,59.164-10.059,82.685-53.097c0,0-6.703,49.771-16.109,61.195
		c0,0-2.691,7.381-0.648,8.066c1.968,0.661,1.968,0.661,1.968,0.661s-65.193,90.764-32.926,129.085c0,0,14.788,35.644,60.51,14.103
		c0,0,58.49-30.255,66.563-55.787c0,0,7.388,60.509,43.006,45.727c0,0,39.68-31.606,31.607-71.28c0,0-9.419-75.958-4.049-86.721
		c0,0,6.067-20.843-4.697-18.14c0,0,18.164-76.643,15.473-84.709c0,0,32.928-79.341,24.892-99.51
		c-8.086-20.145,4.011-93.437-14.825-135.135l1.357-40.321c0,0,25.577,7.406,32.939,7.406c0,0,13.444,6.03,15.449,11.424
		c0,0,15.485,13.442,18.825,13.442c0,0,3.363,80.681-18.127,116.984c0,0-6.067,38.309-2.692,45.709c0,0-4.721,29.564,4.684,47.727
		c0,0,20.843,57.133,32.965,35.631c0,0,26.872,4.709,19.484-4.038c0,0,22.849,4.723,14.775-5.381
		c-8.06-10.073-5.357-8.068-5.357-8.068s15.461,4.038,8.721-5.375c0,0-12.084-19.485-14.115-27.571c0,0-6.043-47.06-14.116-54.436
		c0,0-2.018-19.51,4.697-26.891c0,0,54.467-138.498,42.371-164.704v-7.394c0,0-43.704-49.098-89.426-59.151
		c0,0-28.23-12.796-40.327-19.503c0,0-36.291-41.686-74.612-50.413c0,0-47.068-24.207-73.267-22.213l-15.486-8.049
		c0,0,21.541-46.394,4.721-44.363c0,0,22.152-51.77,2.692-61.868c-19.497-10.079-9.406-5.357-6.067-5.357
		c3.376,0-4.697-8.086-8.721-8.086c-4.049,0-14.127-1.333-10.765-2.005c3.351-0.674,3.351-6.056-5.381-6.722
		c-8.733-0.685-22.163-1.346-17.479-3.377c4.733-1.999,1.345-4.702-0.661-4.024c-2.031,0.667-12.794-3.376-14.788-2.697
		c-2.055,0.672-5.394,0-7.412,0.672c-2.018,0.679-6.715-3.351-8.734-5.35c-2.018-2.037-8.06-3.382-10.078-2.697
		c-2.019,0.66-7.376,0.66-10.104,5.376c-2.679,4.696-2.679,8.054-7.388,6.721c-4.684-1.357-2.031-6.055-4.684-1.357
		c-2.716,4.709-5.419,8.745-2.716,11.43c2.716,2.697,1.357,4.03-0.661,4.03c-2.005,0-6.042,0.679-4.709,4.043
		c1.346,3.358-4.71,1.345-2.692,5.376c2.031,4.024,3.351,4.024-0.66,6.048c-4.036,2.018-14.801,0-10.079,3.351
		c4.697,3.376,6.043,6.061,6.043,6.061l-3.364,4.017l0.661,4.049c0,0,2.042,2.697,0,3.358c-2.018,0.691-2.018,4.036-2.018,4.036
		s4.061,3.369,2.018,4.702c-2.018,1.365,0.672,4.697,1.357,6.722c0.685,2.031,3.364,20.849,3.364,20.849s-8.061-4.043-8.061,7.406
		c0,11.419,10.079,38.304,18.8,41.007c0,0,3.376,16.128,4.721,18.805c0,0-67.224,28.903-66.552,96.826c0,0-3.376,11.411,1.32,16.109
		c0,0,4.062,13.46,2.044,22.872c-2.044,9.406-22.201,73.274-23.546,78.631c-1.346,5.4-1.346,5.4-1.346,5.4
		s-31.595,39.655-47.055,108.905c0,0-35.63,41.673-41.673,43.03l-2.691,8.066c0,0-8.073,6.074-8.721,8.061
		c-0.685,2.018-1.37,7.388-0.685,9.417c0.685,2.013-1.359,51.08,4.696,55.122c0,0,11.425,0,8.734-12.769
		c0,0,20.856,7.399,3.377-16.134c0,0,10.739-9.424,4.048-14.108c0,0,17.467-14.129,20.158-12.789
		c2.666,1.333,2.666,1.333,2.666,1.333s-4.697,34.977,16.806,5.395l4.062-16.147c0,0,20.83-10.078,12.757-28.896
		c-8.049-18.837,0-2.037,0-2.037s91.418-86.017,90.758-127.709l12.097,1.34c0,0,2.69-28.898-1.346-32.94
		c0,0,6.055-36.303,8.745-36.303c0,0,5.37,13.449,21.516,19.492c16.12,6.055,2.69,8.079,6.701,15.467
		c0,0,17.467,4.036,12.783,18.805c-4.709,14.812,5.357,36.995-13.43,51.783c-18.837,14.788-20.856,49.752-20.183,51.745
		c0.661,2.05,4.025,4.721,4.025,4.721s-5.358,5.389-7.388,6.735c-2.031,1.32-28.219,30.908-31.582,46.381
		c-3.377,15.467-22.848,13.431-34.285,60.491l-26.225,51.098l3.364,6.055c0,0-14.814,30.249-14.814,43.691
		c0,13.43-10.738,20.177-14.102,23.54c-3.364,3.358-13.455,18.805-14.127,35.625c-0.661,16.806-16.819,18.157-20.17,66.552
		l-5.357,10.078c0,0-1.359,73.952,0,85.383C369.145,985.956,372.497,1017.55,367.116,1023.586z"/>
	<path fill="#222232" d="M642.754,1076.035c0,40.851,33.101,73.965,73.94,73.965c40.851,0,73.965-33.114,73.965-73.965
		c0-40.85-33.114-73.951-73.965-73.951C675.855,1002.084,642.754,1035.185,642.754,1076.035z"/>
</g>
</svg>
